<mxfile host="app.diagrams.net" agent="Mozilla/5.0 (Windows NT 10.0; Win64; x64) AppleWebKit/537.36 (KHTML, like Gecko) Chrome/117.0.0.0 Safari/537.36" version="28.0.9">
  <diagram id="QYHls89wJqMpIVHXhMj6" name="PÃ¡gina-1">
    <mxGraphModel dx="2713" dy="988" grid="1" gridSize="10" guides="1" tooltips="1" connect="1" arrows="1" fold="1" page="1" pageScale="1" pageWidth="1169" pageHeight="827" math="1" shadow="0">
      <root>
        <mxCell id="0" />
        <mxCell id="1" parent="0" />
        <mxCell id="EwHTVLRrVT_rf0cmMfTu-69" value="" style="endArrow=none;dashed=1;html=1;strokeWidth=3;entryX=0.493;entryY=0.531;entryDx=0;entryDy=0;entryPerimeter=0;" parent="1" target="JG4VFSaP6pWy1ThilDXd-7" edge="1">
          <mxGeometry width="50" height="50" relative="1" as="geometry">
            <mxPoint x="-272" y="585.71" as="sourcePoint" />
            <mxPoint x="-152" y="585.71" as="targetPoint" />
          </mxGeometry>
        </mxCell>
        <mxCell id="JG4VFSaP6pWy1ThilDXd-12" style="edgeStyle=orthogonalEdgeStyle;rounded=0;orthogonalLoop=1;jettySize=auto;html=1;exitX=1;exitY=0.645;exitDx=0;exitDy=0;exitPerimeter=0;startArrow=oval;startFill=1;startSize=10;endArrow=none;endFill=0;endSize=10;strokeWidth=3;" parent="1" source="EwHTVLRrVT_rf0cmMfTu-1" edge="1">
          <mxGeometry relative="1" as="geometry">
            <mxPoint y="828" as="targetPoint" />
          </mxGeometry>
        </mxCell>
        <mxCell id="EwHTVLRrVT_rf0cmMfTu-1" value="" style="pointerEvents=1;verticalLabelPosition=bottom;shadow=0;dashed=0;align=center;html=1;verticalAlign=top;shape=mxgraph.electrical.inductors.inductor_5;strokeWidth=3;container=0;" parent="1" vertex="1">
          <mxGeometry x="-176" y="980" width="140" height="30" as="geometry" />
        </mxCell>
        <mxCell id="EwHTVLRrVT_rf0cmMfTu-6" style="edgeStyle=orthogonalEdgeStyle;rounded=0;orthogonalLoop=1;jettySize=auto;html=1;exitX=0.5;exitY=1;exitDx=0;exitDy=0;exitPerimeter=0;endArrow=oval;endFill=1;strokeWidth=3;endSize=10;" parent="1" source="EwHTVLRrVT_rf0cmMfTu-2" edge="1">
          <mxGeometry relative="1" as="geometry">
            <mxPoint x="-270" y="960" as="targetPoint" />
            <Array as="points">
              <mxPoint x="-310" y="960" />
            </Array>
          </mxGeometry>
        </mxCell>
        <mxCell id="EwHTVLRrVT_rf0cmMfTu-2" value="" style="pointerEvents=1;verticalLabelPosition=bottom;shadow=0;dashed=0;align=center;html=1;verticalAlign=top;shape=mxgraph.electrical.resistors.potentiometer_1;strokeWidth=3;rotation=-180;container=0;" parent="1" vertex="1">
          <mxGeometry x="-360" y="970" width="100" height="40" as="geometry" />
        </mxCell>
        <mxCell id="EwHTVLRrVT_rf0cmMfTu-5" value="" style="rounded=0;whiteSpace=wrap;html=1;strokeWidth=3;strokeColor=#FFFFFF;container=0;" parent="1" vertex="1">
          <mxGeometry x="-277" y="968" width="20" height="60" as="geometry" />
        </mxCell>
        <mxCell id="EwHTVLRrVT_rf0cmMfTu-9" value="" style="endArrow=oval;html=1;strokeWidth=3;rounded=0;entryX=0;entryY=0.645;entryDx=0;entryDy=0;entryPerimeter=0;startArrow=none;startFill=0;endFill=1;endSize=10;" parent="1" target="EwHTVLRrVT_rf0cmMfTu-1" edge="1">
          <mxGeometry width="50" height="50" relative="1" as="geometry">
            <mxPoint x="-270" y="960" as="sourcePoint" />
            <mxPoint x="-189" y="1000" as="targetPoint" />
            <Array as="points">
              <mxPoint x="-240" y="960" />
              <mxPoint x="-240" y="999" />
            </Array>
          </mxGeometry>
        </mxCell>
        <mxCell id="EwHTVLRrVT_rf0cmMfTu-46" value="" style="endArrow=oval;html=1;strokeWidth=3;rounded=0;exitX=0.5;exitY=1;exitDx=0;exitDy=0;entryX=1;entryY=0.25;entryDx=0;entryDy=0;entryPerimeter=0;endFill=1;endSize=10;startArrow=none;" parent="1" source="2dtRokwvFrZfCIqXV_Kj-20" target="EwHTVLRrVT_rf0cmMfTu-2" edge="1">
          <mxGeometry width="50" height="50" relative="1" as="geometry">
            <mxPoint x="-349" y="828" as="sourcePoint" />
            <mxPoint x="-369" y="968" as="targetPoint" />
            <Array as="points">
              <mxPoint x="-400" y="1000" />
            </Array>
          </mxGeometry>
        </mxCell>
        <mxCell id="EwHTVLRrVT_rf0cmMfTu-49" value="" style="endArrow=none;html=1;strokeWidth=3;rounded=0;endFill=0;endSize=10;startArrow=block;startFill=0;startSize=15;entryX=1;entryY=0.5;entryDx=0;entryDy=0;entryPerimeter=0;" parent="1" target="RMLzoHUwO2nVBS5npLTa-6" edge="1">
          <mxGeometry width="50" height="50" relative="1" as="geometry">
            <mxPoint x="-393" y="672" as="sourcePoint" />
            <mxPoint x="-249" y="733" as="targetPoint" />
            <Array as="points">
              <mxPoint x="-278" y="672" />
            </Array>
          </mxGeometry>
        </mxCell>
        <mxCell id="EwHTVLRrVT_rf0cmMfTu-52" value="&lt;font style=&quot;font-size: 24px&quot; face=&quot;Verdana&quot;&gt;t&lt;/font&gt;" style="text;html=1;strokeColor=none;fillColor=none;align=center;verticalAlign=middle;whiteSpace=wrap;rounded=0;dashed=1;container=0;" parent="1" vertex="1">
          <mxGeometry x="-380" y="964" width="40" height="20" as="geometry" />
        </mxCell>
        <mxCell id="EwHTVLRrVT_rf0cmMfTu-54" value="&lt;font style=&quot;font-size: 24px&quot; face=&quot;Verdana&quot;&gt;s&lt;/font&gt;" style="text;html=1;strokeColor=none;fillColor=none;align=center;verticalAlign=middle;whiteSpace=wrap;rounded=0;dashed=1;container=0;" parent="1" vertex="1">
          <mxGeometry x="-291" y="924" width="40" height="20" as="geometry" />
        </mxCell>
        <mxCell id="EwHTVLRrVT_rf0cmMfTu-55" value="&lt;font style=&quot;font-size: 24px&quot; face=&quot;Verdana&quot;&gt;C&lt;/font&gt;" style="text;html=1;strokeColor=none;fillColor=none;align=center;verticalAlign=middle;whiteSpace=wrap;rounded=0;dashed=1;container=0;" parent="1" vertex="1">
          <mxGeometry x="-196" y="964" width="40" height="20" as="geometry" />
        </mxCell>
        <mxCell id="EwHTVLRrVT_rf0cmMfTu-57" value="&lt;font style=&quot;font-size: 24px&quot; face=&quot;Verdana&quot;&gt;D&lt;/font&gt;" style="text;html=1;strokeColor=none;fillColor=none;align=center;verticalAlign=middle;whiteSpace=wrap;rounded=0;dashed=1;container=0;" parent="1" vertex="1">
          <mxGeometry x="-56" y="965" width="40" height="20" as="geometry" />
        </mxCell>
        <mxCell id="EwHTVLRrVT_rf0cmMfTu-72" value="" style="endArrow=none;html=1;strokeWidth=3;startArrow=oval;startFill=0;startSize=12;" parent="1" edge="1">
          <mxGeometry width="50" height="50" relative="1" as="geometry">
            <mxPoint x="-470" y="432" as="sourcePoint" />
            <mxPoint x="600" y="432" as="targetPoint" />
          </mxGeometry>
        </mxCell>
        <mxCell id="EwHTVLRrVT_rf0cmMfTu-73" value="" style="endArrow=none;html=1;strokeWidth=3;startArrow=oval;startFill=0;startSize=12;" parent="1" edge="1">
          <mxGeometry width="50" height="50" relative="1" as="geometry">
            <mxPoint x="-470" y="492" as="sourcePoint" />
            <mxPoint x="600" y="492" as="targetPoint" />
          </mxGeometry>
        </mxCell>
        <mxCell id="EwHTVLRrVT_rf0cmMfTu-75" value="" style="endArrow=oval;html=1;strokeWidth=3;endFill=1;endSize=10;exitX=0.5;exitY=1;exitDx=0;exitDy=0;startArrow=none;" parent="1" source="2dtRokwvFrZfCIqXV_Kj-22" edge="1">
          <mxGeometry width="50" height="50" relative="1" as="geometry">
            <mxPoint x="-419" y="722" as="sourcePoint" />
            <mxPoint x="-400" y="832" as="targetPoint" />
          </mxGeometry>
        </mxCell>
        <mxCell id="EwHTVLRrVT_rf0cmMfTu-76" value="&lt;div style=&quot;font-size: 24px&quot;&gt;&lt;font style=&quot;font-size: 24px&quot;&gt;Rede&lt;/font&gt;&lt;/div&gt;&lt;div style=&quot;font-size: 24px&quot;&gt;&lt;font style=&quot;font-size: 24px&quot;&gt;CC&lt;br&gt;&lt;/font&gt;&lt;/div&gt;" style="text;html=1;strokeColor=none;fillColor=none;align=center;verticalAlign=middle;whiteSpace=wrap;rounded=0;dashed=1;container=0;" parent="1" vertex="1">
          <mxGeometry x="-653" y="432" width="90" height="70" as="geometry" />
        </mxCell>
        <mxCell id="EwHTVLRrVT_rf0cmMfTu-78" value="&lt;font style=&quot;font-size: 24px&quot;&gt;(+110V)&lt;/font&gt;" style="text;html=1;strokeColor=none;fillColor=none;align=center;verticalAlign=middle;whiteSpace=wrap;rounded=0;dashed=1;container=0;" parent="1" vertex="1">
          <mxGeometry x="-547" y="420" width="40" height="20" as="geometry" />
        </mxCell>
        <mxCell id="EwHTVLRrVT_rf0cmMfTu-79" value="&lt;font style=&quot;font-size: 24px&quot;&gt;(-110V)&lt;/font&gt;" style="text;html=1;strokeColor=none;fillColor=none;align=center;verticalAlign=middle;whiteSpace=wrap;rounded=0;dashed=1;container=0;" parent="1" vertex="1">
          <mxGeometry x="-546" y="482" width="40" height="20" as="geometry" />
        </mxCell>
        <mxCell id="RMLzoHUwO2nVBS5npLTa-2" value="" style="endArrow=none;html=1;strokeWidth=3;rounded=0;startArrow=oval;startFill=1;endSize=6;startSize=10;" parent="1" edge="1">
          <mxGeometry width="50" height="50" relative="1" as="geometry">
            <mxPoint y="830" as="sourcePoint" />
            <mxPoint x="-40" y="830" as="targetPoint" />
            <Array as="points">
              <mxPoint x="-139" y="830" />
            </Array>
          </mxGeometry>
        </mxCell>
        <mxCell id="EwHTVLRrVT_rf0cmMfTu-27" value="" style="rounded=0;whiteSpace=wrap;html=1;strokeColor=#000000;strokeWidth=3;fillColor=#000000;container=0;" parent="1" vertex="1">
          <mxGeometry x="-265" y="809" width="130" height="40" as="geometry" />
        </mxCell>
        <mxCell id="EwHTVLRrVT_rf0cmMfTu-28" value="" style="ellipse;whiteSpace=wrap;html=1;aspect=fixed;strokeColor=#000000;strokeWidth=3;fillColor=#FFFFFF;container=0;" parent="1" vertex="1">
          <mxGeometry x="-256.5" y="773" width="114" height="114" as="geometry" />
        </mxCell>
        <mxCell id="EwHTVLRrVT_rf0cmMfTu-29" value="&lt;font style=&quot;font-size: 45px&quot;&gt;M&lt;/font&gt;" style="text;html=1;strokeColor=none;fillColor=none;align=center;verticalAlign=middle;whiteSpace=wrap;rounded=0;container=0;" parent="1" vertex="1">
          <mxGeometry x="-219.5" y="809" width="40" height="20" as="geometry" />
        </mxCell>
        <mxCell id="EwHTVLRrVT_rf0cmMfTu-58" value="&lt;font style=&quot;font-size: 24px&quot; face=&quot;Verdana&quot;&gt;GA&lt;/font&gt;" style="text;html=1;strokeColor=none;fillColor=none;align=center;verticalAlign=middle;whiteSpace=wrap;rounded=0;dashed=1;container=0;" parent="1" vertex="1">
          <mxGeometry x="-313" y="789" width="40" height="20" as="geometry" />
        </mxCell>
        <mxCell id="EwHTVLRrVT_rf0cmMfTu-59" value="&lt;font style=&quot;font-size: 24px&quot; face=&quot;Verdana&quot;&gt;HB&lt;/font&gt;" style="text;html=1;strokeColor=none;fillColor=none;align=center;verticalAlign=middle;whiteSpace=wrap;rounded=0;dashed=1;container=0;" parent="1" vertex="1">
          <mxGeometry x="-126" y="789" width="40" height="20" as="geometry" />
        </mxCell>
        <mxCell id="JG4VFSaP6pWy1ThilDXd-10" style="edgeStyle=orthogonalEdgeStyle;rounded=0;orthogonalLoop=1;jettySize=auto;html=1;exitX=0;exitY=0.5;exitDx=0;exitDy=0;exitPerimeter=0;startArrow=none;startFill=0;startSize=15;endArrow=oval;endFill=1;endSize=10;strokeWidth=3;" parent="1" source="RMLzoHUwO2nVBS5npLTa-6" edge="1">
          <mxGeometry relative="1" as="geometry">
            <mxPoint x="-278.57142857142856" y="432" as="targetPoint" />
          </mxGeometry>
        </mxCell>
        <mxCell id="RMLzoHUwO2nVBS5npLTa-6" value="" style="pointerEvents=1;verticalLabelPosition=bottom;shadow=0;dashed=0;align=center;html=1;verticalAlign=top;shape=mxgraph.electrical.miscellaneous.fuse_2;strokeWidth=3;direction=south;container=0;" parent="1" vertex="1">
          <mxGeometry x="-285" y="563" width="13" height="46" as="geometry" />
        </mxCell>
        <mxCell id="JG4VFSaP6pWy1ThilDXd-2" value="" style="pointerEvents=1;verticalLabelPosition=bottom;shadow=0;dashed=0;align=center;html=1;verticalAlign=top;shape=mxgraph.electrical.resistors.resistor_2;direction=south;strokeWidth=3;flipV=1;container=0;" parent="1" vertex="1">
          <mxGeometry x="-412" y="582" width="23" height="111" as="geometry" />
        </mxCell>
        <mxCell id="JG4VFSaP6pWy1ThilDXd-9" style="edgeStyle=orthogonalEdgeStyle;rounded=0;orthogonalLoop=1;jettySize=auto;html=1;exitX=0;exitY=0.5;exitDx=0;exitDy=0;exitPerimeter=0;startArrow=none;startFill=0;startSize=15;endArrow=oval;endFill=1;endSize=10;strokeWidth=3;" parent="1" source="JG4VFSaP6pWy1ThilDXd-7" edge="1">
          <mxGeometry relative="1" as="geometry">
            <mxPoint x="-119.71428571428567" y="492" as="targetPoint" />
          </mxGeometry>
        </mxCell>
        <mxCell id="JG4VFSaP6pWy1ThilDXd-11" style="edgeStyle=orthogonalEdgeStyle;rounded=0;orthogonalLoop=1;jettySize=auto;html=1;exitX=1;exitY=0.5;exitDx=0;exitDy=0;exitPerimeter=0;startArrow=none;startFill=0;startSize=11;endArrow=none;endFill=0;endSize=10;strokeWidth=3;" parent="1" source="JG4VFSaP6pWy1ThilDXd-7" edge="1">
          <mxGeometry relative="1" as="geometry">
            <mxPoint y="832" as="targetPoint" />
            <Array as="points">
              <mxPoint x="-119" y="672" />
              <mxPoint y="672" />
            </Array>
          </mxGeometry>
        </mxCell>
        <mxCell id="JG4VFSaP6pWy1ThilDXd-7" value="" style="pointerEvents=1;verticalLabelPosition=bottom;shadow=0;dashed=0;align=center;html=1;verticalAlign=top;shape=mxgraph.electrical.miscellaneous.fuse_2;strokeWidth=3;direction=south;rotation=0;container=0;" parent="1" vertex="1">
          <mxGeometry x="-126" y="563" width="13" height="46" as="geometry" />
        </mxCell>
        <mxCell id="JG4VFSaP6pWy1ThilDXd-14" value="" style="endArrow=none;dashed=1;html=1;strokeWidth=3;entryX=0.493;entryY=0.531;entryDx=0;entryDy=0;entryPerimeter=0;" parent="1" edge="1">
          <mxGeometry width="50" height="50" relative="1" as="geometry">
            <mxPoint x="273" y="587.71" as="sourcePoint" />
            <mxPoint x="425.097" y="587.6780000000001" as="targetPoint" />
          </mxGeometry>
        </mxCell>
        <mxCell id="JG4VFSaP6pWy1ThilDXd-15" style="edgeStyle=orthogonalEdgeStyle;rounded=0;orthogonalLoop=1;jettySize=auto;html=1;exitX=1;exitY=0.645;exitDx=0;exitDy=0;exitPerimeter=0;startArrow=none;startFill=0;startSize=11;endArrow=none;endFill=0;endSize=10;strokeWidth=3;" parent="1" source="JG4VFSaP6pWy1ThilDXd-16" edge="1">
          <mxGeometry relative="1" as="geometry">
            <mxPoint x="560" y="830" as="targetPoint" />
            <Array as="points">
              <mxPoint x="560" y="999" />
            </Array>
          </mxGeometry>
        </mxCell>
        <mxCell id="JG4VFSaP6pWy1ThilDXd-16" value="" style="pointerEvents=1;verticalLabelPosition=bottom;shadow=0;dashed=0;align=center;html=1;verticalAlign=top;shape=mxgraph.electrical.inductors.inductor_5;strokeWidth=3;container=0;" parent="1" vertex="1">
          <mxGeometry x="384" y="980" width="140" height="30" as="geometry" />
        </mxCell>
        <mxCell id="JG4VFSaP6pWy1ThilDXd-55" style="edgeStyle=orthogonalEdgeStyle;rounded=0;orthogonalLoop=1;jettySize=auto;html=1;exitX=1;exitY=1;exitDx=0;exitDy=0;exitPerimeter=0;startArrow=none;startFill=0;startSize=11;endArrow=oval;endFill=1;endSize=10;strokeWidth=3;" parent="1" source="JG4VFSaP6pWy1ThilDXd-21" edge="1">
          <mxGeometry relative="1" as="geometry">
            <mxPoint x="452.16666666666674" y="492" as="targetPoint" />
          </mxGeometry>
        </mxCell>
        <mxCell id="JG4VFSaP6pWy1ThilDXd-56" style="edgeStyle=orthogonalEdgeStyle;rounded=0;orthogonalLoop=1;jettySize=auto;html=1;exitX=0;exitY=1;exitDx=0;exitDy=0;exitPerimeter=0;startArrow=none;startFill=0;startSize=11;endArrow=none;endFill=0;endSize=10;strokeWidth=3;" parent="1" source="JG4VFSaP6pWy1ThilDXd-21" edge="1">
          <mxGeometry relative="1" as="geometry">
            <mxPoint x="560" y="832" as="targetPoint" />
            <Array as="points">
              <mxPoint x="452" y="672" />
              <mxPoint x="560" y="672" />
            </Array>
          </mxGeometry>
        </mxCell>
        <mxCell id="JG4VFSaP6pWy1ThilDXd-21" value="" style="pointerEvents=1;verticalLabelPosition=bottom;shadow=0;dashed=0;align=center;html=1;verticalAlign=top;shape=mxgraph.electrical.electro-mechanical.fuse;strokeWidth=3;fillColor=#FFFFFF;direction=north;container=0;" parent="1" vertex="1">
          <mxGeometry x="422" y="527" width="30" height="120" as="geometry" />
        </mxCell>
        <mxCell id="JG4VFSaP6pWy1ThilDXd-54" style="edgeStyle=orthogonalEdgeStyle;rounded=0;orthogonalLoop=1;jettySize=auto;html=1;exitX=1;exitY=1;exitDx=0;exitDy=0;exitPerimeter=0;startArrow=none;startFill=0;startSize=11;endArrow=oval;endFill=1;endSize=10;strokeWidth=3;" parent="1" source="JG4VFSaP6pWy1ThilDXd-22" edge="1">
          <mxGeometry relative="1" as="geometry">
            <mxPoint x="273" y="432" as="targetPoint" />
          </mxGeometry>
        </mxCell>
        <mxCell id="JG4VFSaP6pWy1ThilDXd-22" value="" style="pointerEvents=1;verticalLabelPosition=bottom;shadow=0;dashed=0;align=center;html=1;verticalAlign=top;shape=mxgraph.electrical.electro-mechanical.fuse;strokeWidth=3;fillColor=#FFFFFF;direction=north;container=0;" parent="1" vertex="1">
          <mxGeometry x="243" y="527" width="30" height="120" as="geometry" />
        </mxCell>
        <mxCell id="JG4VFSaP6pWy1ThilDXd-23" value="" style="endArrow=oval;html=1;strokeWidth=3;rounded=0;entryX=1;entryY=0.25;entryDx=0;entryDy=0;entryPerimeter=0;endFill=1;endSize=10;startArrow=none;" parent="1" source="2dtRokwvFrZfCIqXV_Kj-24" edge="1">
          <mxGeometry width="50" height="50" relative="1" as="geometry">
            <mxPoint x="100" y="782" as="sourcePoint" />
            <mxPoint x="196" y="1000" as="targetPoint" />
            <Array as="points">
              <mxPoint x="160" y="830" />
              <mxPoint x="160" y="1000" />
            </Array>
          </mxGeometry>
        </mxCell>
        <mxCell id="JG4VFSaP6pWy1ThilDXd-27" value="&lt;font style=&quot;font-size: 24px&quot; face=&quot;Verdana&quot;&gt;C&lt;/font&gt;" style="text;html=1;strokeColor=none;fillColor=none;align=center;verticalAlign=middle;whiteSpace=wrap;rounded=0;dashed=1;container=0;" parent="1" vertex="1">
          <mxGeometry x="364" y="964" width="40" height="20" as="geometry" />
        </mxCell>
        <mxCell id="JG4VFSaP6pWy1ThilDXd-28" value="&lt;font style=&quot;font-size: 24px&quot; face=&quot;Verdana&quot;&gt;D&lt;/font&gt;" style="text;html=1;strokeColor=none;fillColor=none;align=center;verticalAlign=middle;whiteSpace=wrap;rounded=0;dashed=1;container=0;" parent="1" vertex="1">
          <mxGeometry x="504" y="965" width="40" height="20" as="geometry" />
        </mxCell>
        <mxCell id="JG4VFSaP6pWy1ThilDXd-31" value="" style="endArrow=oval;html=1;strokeWidth=3;endFill=1;endSize=10;rounded=0;startArrow=none;" parent="1" edge="1">
          <mxGeometry width="50" height="50" relative="1" as="geometry">
            <mxPoint x="270" y="672" as="sourcePoint" />
            <mxPoint x="160" y="832" as="targetPoint" />
            <Array as="points">
              <mxPoint x="160" y="672" />
            </Array>
          </mxGeometry>
        </mxCell>
        <mxCell id="JG4VFSaP6pWy1ThilDXd-34" value="" style="endArrow=none;html=1;strokeWidth=3;rounded=0;startArrow=oval;startFill=1;endSize=6;startSize=10;entryX=1;entryY=0.5;entryDx=0;entryDy=0;" parent="1" target="JG4VFSaP6pWy1ThilDXd-35" edge="1">
          <mxGeometry width="50" height="50" relative="1" as="geometry">
            <mxPoint x="560" y="831" as="sourcePoint" />
            <mxPoint x="514" y="830.5" as="targetPoint" />
          </mxGeometry>
        </mxCell>
        <mxCell id="JG4VFSaP6pWy1ThilDXd-35" value="" style="rounded=0;whiteSpace=wrap;html=1;strokeColor=#000000;strokeWidth=3;fillColor=#000000;container=0;" parent="1" vertex="1">
          <mxGeometry x="295" y="811" width="130" height="40" as="geometry" />
        </mxCell>
        <mxCell id="JG4VFSaP6pWy1ThilDXd-36" value="" style="ellipse;whiteSpace=wrap;html=1;aspect=fixed;strokeColor=#000000;strokeWidth=3;fillColor=#FFFFFF;container=0;" parent="1" vertex="1">
          <mxGeometry x="303.5" y="775" width="114" height="114" as="geometry" />
        </mxCell>
        <mxCell id="JG4VFSaP6pWy1ThilDXd-37" value="&lt;font style=&quot;font-size: 45px&quot;&gt;G&lt;/font&gt;" style="text;html=1;strokeColor=none;fillColor=none;align=center;verticalAlign=middle;whiteSpace=wrap;rounded=0;container=0;" parent="1" vertex="1">
          <mxGeometry x="340.5" y="811" width="40" height="20" as="geometry" />
        </mxCell>
        <mxCell id="JG4VFSaP6pWy1ThilDXd-41" value="&lt;font style=&quot;font-size: 24px&quot; face=&quot;Verdana&quot;&gt;GA&lt;/font&gt;" style="text;html=1;strokeColor=none;fillColor=none;align=center;verticalAlign=middle;whiteSpace=wrap;rounded=0;dashed=1;container=0;" parent="1" vertex="1">
          <mxGeometry x="247" y="791" width="40" height="20" as="geometry" />
        </mxCell>
        <mxCell id="JG4VFSaP6pWy1ThilDXd-42" value="&lt;font style=&quot;font-size: 24px&quot; face=&quot;Verdana&quot;&gt;HB&lt;/font&gt;" style="text;html=1;strokeColor=none;fillColor=none;align=center;verticalAlign=middle;whiteSpace=wrap;rounded=0;dashed=1;container=0;" parent="1" vertex="1">
          <mxGeometry x="434" y="791" width="40" height="20" as="geometry" />
        </mxCell>
        <mxCell id="JG4VFSaP6pWy1ThilDXd-57" value="&lt;font style=&quot;font-size: 24px&quot; face=&quot;Verdana&quot;&gt;R&lt;sub&gt;arr&lt;/sub&gt;&lt;/font&gt;" style="text;html=1;strokeColor=none;fillColor=none;align=center;verticalAlign=middle;whiteSpace=wrap;rounded=0;dashed=1;container=0;" parent="1" vertex="1">
          <mxGeometry x="-467" y="622" width="40" height="20" as="geometry" />
        </mxCell>
        <mxCell id="xqJZyPHzB6WkQOfQiTBp-8" value="&lt;font style=&quot;font-size: 24px&quot; face=&quot;Verdana&quot;&gt;IF2&lt;/font&gt;" style="text;html=1;strokeColor=none;fillColor=none;align=center;verticalAlign=middle;whiteSpace=wrap;rounded=0;dashed=1;container=0;" parent="1" vertex="1">
          <mxGeometry x="465" y="577" width="40" height="20" as="geometry" />
        </mxCell>
        <mxCell id="xqJZyPHzB6WkQOfQiTBp-17" value="&lt;font style=&quot;font-size: 24px&quot; face=&quot;Verdana&quot;&gt;IF1&lt;/font&gt;" style="text;html=1;strokeColor=none;fillColor=none;align=center;verticalAlign=middle;whiteSpace=wrap;rounded=0;dashed=1;container=0;" parent="1" vertex="1">
          <mxGeometry x="-109" y="577" width="40" height="20" as="geometry" />
        </mxCell>
        <mxCell id="xqJZyPHzB6WkQOfQiTBp-18" style="edgeStyle=orthogonalEdgeStyle;rounded=0;orthogonalLoop=1;jettySize=auto;html=1;exitX=0.5;exitY=1;exitDx=0;exitDy=0;exitPerimeter=0;endArrow=oval;endFill=1;strokeWidth=3;endSize=10;" parent="1" source="xqJZyPHzB6WkQOfQiTBp-19" edge="1">
          <mxGeometry relative="1" as="geometry">
            <mxPoint x="290" y="960" as="targetPoint" />
            <Array as="points">
              <mxPoint x="250" y="960" />
            </Array>
          </mxGeometry>
        </mxCell>
        <mxCell id="xqJZyPHzB6WkQOfQiTBp-19" value="" style="pointerEvents=1;verticalLabelPosition=bottom;shadow=0;dashed=0;align=center;html=1;verticalAlign=top;shape=mxgraph.electrical.resistors.potentiometer_1;strokeWidth=3;rotation=-180;container=0;" parent="1" vertex="1">
          <mxGeometry x="200" y="970" width="100" height="40" as="geometry" />
        </mxCell>
        <mxCell id="xqJZyPHzB6WkQOfQiTBp-20" value="" style="rounded=0;whiteSpace=wrap;html=1;strokeWidth=3;strokeColor=#FFFFFF;container=0;" parent="1" vertex="1">
          <mxGeometry x="285" y="968" width="20" height="60" as="geometry" />
        </mxCell>
        <mxCell id="xqJZyPHzB6WkQOfQiTBp-21" value="" style="endArrow=oval;html=1;strokeWidth=3;rounded=0;entryX=0;entryY=0.645;entryDx=0;entryDy=0;entryPerimeter=0;startArrow=none;startFill=0;endFill=1;endSize=10;" parent="1" edge="1">
          <mxGeometry width="50" height="50" relative="1" as="geometry">
            <mxPoint x="290" y="960" as="sourcePoint" />
            <mxPoint x="384" y="999.3499999999999" as="targetPoint" />
            <Array as="points">
              <mxPoint x="320" y="960" />
              <mxPoint x="320" y="999" />
            </Array>
          </mxGeometry>
        </mxCell>
        <mxCell id="xqJZyPHzB6WkQOfQiTBp-22" value="&lt;font style=&quot;font-size: 24px&quot; face=&quot;Verdana&quot;&gt;t&lt;/font&gt;" style="text;html=1;strokeColor=none;fillColor=none;align=center;verticalAlign=middle;whiteSpace=wrap;rounded=0;dashed=1;container=0;" parent="1" vertex="1">
          <mxGeometry x="180" y="964" width="40" height="20" as="geometry" />
        </mxCell>
        <mxCell id="xqJZyPHzB6WkQOfQiTBp-23" value="&lt;font style=&quot;font-size: 24px&quot; face=&quot;Verdana&quot;&gt;s&lt;/font&gt;" style="text;html=1;strokeColor=none;fillColor=none;align=center;verticalAlign=middle;whiteSpace=wrap;rounded=0;dashed=1;container=0;" parent="1" vertex="1">
          <mxGeometry x="269" y="924" width="40" height="20" as="geometry" />
        </mxCell>
        <mxCell id="2dtRokwvFrZfCIqXV_Kj-1" value="&lt;font style=&quot;font-size: 25px&quot; face=&quot;Verdana&quot;&gt;A&lt;sub&gt;1&lt;/sub&gt;&lt;/font&gt;" style="ellipse;whiteSpace=wrap;html=1;aspect=fixed;fontFamily=Times New Roman;strokeWidth=2;container=0;" parent="1" vertex="1">
          <mxGeometry x="-397" y="402" width="60" height="60" as="geometry" />
        </mxCell>
        <mxCell id="2dtRokwvFrZfCIqXV_Kj-3" value="&lt;font face=&quot;Verdana&quot;&gt;&lt;span style=&quot;font-size: 25px&quot;&gt;V&lt;/span&gt;&lt;/font&gt;" style="ellipse;whiteSpace=wrap;html=1;aspect=fixed;fontFamily=Times New Roman;strokeWidth=2;container=0;" parent="1" vertex="1">
          <mxGeometry x="-30" y="556" width="60" height="60" as="geometry" />
        </mxCell>
        <mxCell id="2dtRokwvFrZfCIqXV_Kj-2" value="&lt;font face=&quot;Verdana&quot;&gt;&lt;span style=&quot;font-size: 25px&quot;&gt;V&lt;/span&gt;&lt;/font&gt;" style="ellipse;whiteSpace=wrap;html=1;aspect=fixed;fontFamily=Times New Roman;strokeWidth=2;strokeColor=#0000FF;fontColor=#0000FF;container=0;" parent="1" vertex="1">
          <mxGeometry x="130" y="556" width="60" height="60" as="geometry" />
        </mxCell>
        <mxCell id="2dtRokwvFrZfCIqXV_Kj-6" style="edgeStyle=orthogonalEdgeStyle;rounded=0;orthogonalLoop=1;jettySize=auto;html=1;startArrow=none;startFill=0;startSize=11;endArrow=oval;endFill=1;endSize=10;strokeWidth=3;strokeColor=#0000FF;" parent="1" source="2dtRokwvFrZfCIqXV_Kj-2" edge="1">
          <mxGeometry relative="1" as="geometry">
            <mxPoint x="160" y="432" as="targetPoint" />
            <mxPoint x="169.5" y="527" as="sourcePoint" />
            <Array as="points">
              <mxPoint x="160" y="432" />
            </Array>
          </mxGeometry>
        </mxCell>
        <mxCell id="2dtRokwvFrZfCIqXV_Kj-10" style="edgeStyle=orthogonalEdgeStyle;rounded=0;orthogonalLoop=1;jettySize=auto;html=1;startArrow=oval;startFill=1;startSize=11;endArrow=oval;endFill=1;endSize=10;strokeWidth=3;strokeColor=#0000FF;" parent="1" edge="1">
          <mxGeometry relative="1" as="geometry">
            <mxPoint x="560" y="492" as="targetPoint" />
            <mxPoint x="560" y="672" as="sourcePoint" />
            <Array as="points">
              <mxPoint x="560" y="492" />
            </Array>
          </mxGeometry>
        </mxCell>
        <mxCell id="2dtRokwvFrZfCIqXV_Kj-12" style="edgeStyle=orthogonalEdgeStyle;rounded=0;orthogonalLoop=1;jettySize=auto;html=1;startArrow=none;startFill=0;startSize=11;endArrow=none;endFill=0;endSize=10;strokeWidth=3;strokeColor=#0000FF;fontSize=11;" parent="1" edge="1">
          <mxGeometry relative="1" as="geometry">
            <mxPoint x="158" y="1190" as="targetPoint" />
            <mxPoint x="258" y="1190" as="sourcePoint" />
            <Array as="points">
              <mxPoint x="158" y="1190" />
            </Array>
          </mxGeometry>
        </mxCell>
        <mxCell id="2dtRokwvFrZfCIqXV_Kj-13" value="&lt;font face=&quot;Verdana&quot; style=&quot;font-size: 24px&quot;&gt;&lt;span style=&quot;font-size: 24px&quot;&gt;VerificaÃ§Ã£o da polaridade do gerador CC&lt;/span&gt;&lt;/font&gt;" style="text;html=1;strokeColor=none;fillColor=none;align=center;verticalAlign=middle;whiteSpace=wrap;rounded=0;dashed=1;fontColor=#0000FF;fontSize=24;container=0;" parent="1" vertex="1">
          <mxGeometry x="272.5" y="1125" width="252.5" height="130" as="geometry" />
        </mxCell>
        <mxCell id="2dtRokwvFrZfCIqXV_Kj-18" style="edgeStyle=orthogonalEdgeStyle;rounded=0;orthogonalLoop=1;jettySize=auto;html=1;startArrow=none;startFill=0;startSize=11;endArrow=oval;endFill=1;endSize=10;strokeWidth=3;exitX=0.5;exitY=0;exitDx=0;exitDy=0;" parent="1" source="2dtRokwvFrZfCIqXV_Kj-3" edge="1">
          <mxGeometry relative="1" as="geometry">
            <mxPoint y="432" as="targetPoint" />
            <mxPoint y="552" as="sourcePoint" />
          </mxGeometry>
        </mxCell>
        <mxCell id="2dtRokwvFrZfCIqXV_Kj-19" style="edgeStyle=orthogonalEdgeStyle;rounded=0;orthogonalLoop=1;jettySize=auto;html=1;startArrow=none;startFill=0;startSize=11;endArrow=oval;endFill=1;endSize=10;strokeWidth=3;exitX=0.5;exitY=1;exitDx=0;exitDy=0;" parent="1" source="2dtRokwvFrZfCIqXV_Kj-3" edge="1">
          <mxGeometry relative="1" as="geometry">
            <mxPoint y="672" as="targetPoint" />
            <mxPoint x="10" y="562" as="sourcePoint" />
          </mxGeometry>
        </mxCell>
        <mxCell id="2dtRokwvFrZfCIqXV_Kj-20" value="&lt;font style=&quot;font-size: 25px&quot; face=&quot;Verdana&quot;&gt;A&lt;sub&gt;3&lt;/sub&gt;&lt;/font&gt;" style="ellipse;whiteSpace=wrap;html=1;aspect=fixed;fontFamily=Times New Roman;strokeWidth=2;container=0;" parent="1" vertex="1">
          <mxGeometry x="-430.5" y="890" width="60" height="60" as="geometry" />
        </mxCell>
        <mxCell id="2dtRokwvFrZfCIqXV_Kj-21" value="" style="endArrow=none;html=1;strokeWidth=3;rounded=0;exitX=0;exitY=0.5;exitDx=0;exitDy=0;endFill=1;endSize=10;entryX=0.5;entryY=0;entryDx=0;entryDy=0;" parent="1" target="2dtRokwvFrZfCIqXV_Kj-20" edge="1">
          <mxGeometry width="50" height="50" relative="1" as="geometry">
            <mxPoint x="-265" y="832" as="sourcePoint" />
            <mxPoint x="-400" y="882" as="targetPoint" />
            <Array as="points">
              <mxPoint x="-400" y="831" />
            </Array>
          </mxGeometry>
        </mxCell>
        <mxCell id="2dtRokwvFrZfCIqXV_Kj-22" value="&lt;font style=&quot;font-size: 25px&quot; face=&quot;Verdana&quot;&gt;A&lt;sub&gt;2&lt;/sub&gt;&lt;/font&gt;" style="ellipse;whiteSpace=wrap;html=1;aspect=fixed;fontFamily=Times New Roman;strokeWidth=2;container=0;" parent="1" vertex="1">
          <mxGeometry x="-430.5" y="712" width="60" height="60" as="geometry" />
        </mxCell>
        <mxCell id="2dtRokwvFrZfCIqXV_Kj-23" value="" style="endArrow=none;html=1;strokeWidth=3;endFill=1;endSize=10;exitX=0;exitY=0.5;exitDx=0;exitDy=0;exitPerimeter=0;" parent="1" source="JG4VFSaP6pWy1ThilDXd-2" target="2dtRokwvFrZfCIqXV_Kj-22" edge="1">
          <mxGeometry width="50" height="50" relative="1" as="geometry">
            <mxPoint x="-400.5" y="693" as="sourcePoint" />
            <mxPoint x="-400" y="832" as="targetPoint" />
          </mxGeometry>
        </mxCell>
        <mxCell id="2dtRokwvFrZfCIqXV_Kj-27" value="" style="endArrow=none;html=1;strokeWidth=3;rounded=0;exitX=0;exitY=0.5;exitDx=0;exitDy=0;endFill=1;endSize=10;" parent="1" source="JG4VFSaP6pWy1ThilDXd-35" edge="1">
          <mxGeometry width="50" height="50" relative="1" as="geometry">
            <mxPoint x="295" y="831" as="sourcePoint" />
            <mxPoint x="160" y="832" as="targetPoint" />
            <Array as="points" />
          </mxGeometry>
        </mxCell>
        <mxCell id="2dtRokwvFrZfCIqXV_Kj-24" value="&lt;font style=&quot;font-size: 25px&quot; face=&quot;Verdana&quot;&gt;A&lt;sub&gt;5&lt;/sub&gt;&lt;/font&gt;" style="ellipse;whiteSpace=wrap;html=1;aspect=fixed;fontFamily=Times New Roman;strokeWidth=2;container=0;" parent="1" vertex="1">
          <mxGeometry x="130" y="890" width="60" height="60" as="geometry" />
        </mxCell>
        <mxCell id="2dtRokwvFrZfCIqXV_Kj-30" value="" style="endArrow=none;html=1;strokeWidth=3;endFill=1;endSize=10;exitX=0;exitY=1;exitDx=0;exitDy=0;exitPerimeter=0;rounded=0;" parent="1" source="JG4VFSaP6pWy1ThilDXd-22" edge="1">
          <mxGeometry width="50" height="50" relative="1" as="geometry">
            <mxPoint x="273" y="647" as="sourcePoint" />
            <mxPoint x="160" y="672" as="targetPoint" />
            <Array as="points">
              <mxPoint x="273" y="672" />
            </Array>
          </mxGeometry>
        </mxCell>
        <mxCell id="2dtRokwvFrZfCIqXV_Kj-29" value="&lt;font style=&quot;font-size: 25px&quot; face=&quot;Verdana&quot;&gt;A&lt;sub&gt;4&lt;/sub&gt;&lt;/font&gt;" style="ellipse;whiteSpace=wrap;html=1;aspect=fixed;fontFamily=Times New Roman;strokeWidth=2;container=0;" parent="1" vertex="1">
          <mxGeometry x="127" y="712" width="60" height="60" as="geometry" />
        </mxCell>
        <mxCell id="2dtRokwvFrZfCIqXV_Kj-9" style="edgeStyle=orthogonalEdgeStyle;rounded=0;orthogonalLoop=1;jettySize=auto;html=1;startArrow=none;startFill=0;startSize=11;endArrow=oval;endFill=1;endSize=10;strokeWidth=3;exitX=0.5;exitY=1;exitDx=0;exitDy=0;strokeColor=#0000FF;" parent="1" source="2dtRokwvFrZfCIqXV_Kj-2" edge="1">
          <mxGeometry relative="1" as="geometry">
            <mxPoint x="160" y="672" as="targetPoint" />
            <mxPoint x="160" y="642" as="sourcePoint" />
          </mxGeometry>
        </mxCell>
        <mxCell id="JG4VFSaP6pWy1ThilDXd-80" value="" style="rounded=1;whiteSpace=wrap;html=1;strokeWidth=3;direction=south;gradientColor=#ffffff;fillColor=#BABABA;gradientDirection=north;arcSize=50;strokeColor=#999999;rotation=90;container=0;" parent="1" vertex="1">
          <mxGeometry x="-202" y="1087" width="20" height="205" as="geometry" />
        </mxCell>
        <mxCell id="JG4VFSaP6pWy1ThilDXd-74" value="" style="rounded=0;whiteSpace=wrap;html=1;strokeColor=#000000;strokeWidth=3;fillColor=#000000;rotation=90;container=0;" parent="1" vertex="1">
          <mxGeometry x="-387" y="1169" width="130" height="40" as="geometry" />
        </mxCell>
        <mxCell id="xqJZyPHzB6WkQOfQiTBp-3" value="" style="html=1;shadow=0;dashed=0;align=center;verticalAlign=middle;shape=mxgraph.arrows2.uTurnArrow;dy=4.94;arrowHead=34.89;dx2=33.47;strokeWidth=3;fillColor=#BABABA;rotation=122;container=0;" parent="1" vertex="1">
          <mxGeometry x="-180" y="1117" width="20" height="101" as="geometry" />
        </mxCell>
        <mxCell id="xqJZyPHzB6WkQOfQiTBp-5" value="&lt;font face=&quot;Verdana&quot; style=&quot;font-size: 24px&quot;&gt;&lt;span&gt;Ï&lt;sub&gt;m&lt;/sub&gt;&lt;/span&gt;&lt;/font&gt;" style="text;html=1;strokeColor=none;fillColor=none;align=center;verticalAlign=middle;whiteSpace=wrap;rounded=0;dashed=1;rotation=0;container=0;" parent="1" vertex="1">
          <mxGeometry x="-205" y="1094" width="70" height="50" as="geometry" />
        </mxCell>
        <mxCell id="xqJZyPHzB6WkQOfQiTBp-11" value="" style="rounded=0;whiteSpace=wrap;html=1;strokeColor=#000000;strokeWidth=3;fillColor=#000000;rotation=90;container=0;" parent="1" vertex="1">
          <mxGeometry x="-108" y="1169" width="130" height="40" as="geometry" />
        </mxCell>
        <mxCell id="2dtRokwvFrZfCIqXV_Kj-34" value="" style="ellipse;whiteSpace=wrap;html=1;aspect=fixed;strokeColor=#000000;strokeWidth=3;fillColor=#FFFFFF;container=0;" parent="1" vertex="1">
          <mxGeometry x="-379" y="1132" width="114" height="114" as="geometry" />
        </mxCell>
        <mxCell id="2dtRokwvFrZfCIqXV_Kj-35" value="&lt;font style=&quot;font-size: 45px&quot;&gt;M&lt;/font&gt;" style="text;html=1;strokeColor=none;fillColor=none;align=center;verticalAlign=middle;whiteSpace=wrap;rounded=0;container=0;" parent="1" vertex="1">
          <mxGeometry x="-342" y="1168" width="40" height="20" as="geometry" />
        </mxCell>
        <mxCell id="2dtRokwvFrZfCIqXV_Kj-39" value="" style="ellipse;whiteSpace=wrap;html=1;aspect=fixed;strokeColor=#000000;strokeWidth=3;fillColor=#FFFFFF;container=0;" parent="1" vertex="1">
          <mxGeometry x="-100" y="1132" width="114" height="114" as="geometry" />
        </mxCell>
        <mxCell id="2dtRokwvFrZfCIqXV_Kj-40" value="&lt;font style=&quot;font-size: 45px&quot;&gt;G&lt;/font&gt;" style="text;html=1;strokeColor=none;fillColor=none;align=center;verticalAlign=middle;whiteSpace=wrap;rounded=0;container=0;" parent="1" vertex="1">
          <mxGeometry x="-63" y="1168" width="40" height="20" as="geometry" />
        </mxCell>
        <mxCell id="2dtRokwvFrZfCIqXV_Kj-44" value="&lt;font face=&quot;Verdana&quot; style=&quot;font-size: 24px&quot;&gt;Grupo motor-gerador&lt;br&gt;&amp;nbsp;(acoplamento mecÃ¢nico)&lt;/font&gt;" style="text;html=1;strokeColor=none;fillColor=none;align=center;verticalAlign=middle;whiteSpace=wrap;rounded=0;dashed=1;fontColor=#000000;fontSize=24;container=0;" parent="1" vertex="1">
          <mxGeometry x="-379" y="1246" width="379" height="110" as="geometry" />
        </mxCell>
        <mxCell id="EwHTVLRrVT_rf0cmMfTu-30" value="" style="endArrow=none;dashed=1;html=1;strokeWidth=3;" parent="1" edge="1">
          <mxGeometry width="50" height="50" relative="1" as="geometry">
            <mxPoint x="-223.5" y="859" as="sourcePoint" />
            <mxPoint x="-173.5" y="859" as="targetPoint" />
          </mxGeometry>
        </mxCell>
        <mxCell id="EwHTVLRrVT_rf0cmMfTu-31" value="" style="endArrow=none;html=1;strokeWidth=3;" parent="1" edge="1">
          <mxGeometry width="50" height="50" relative="1" as="geometry">
            <mxPoint x="-225.5" y="849" as="sourcePoint" />
            <mxPoint x="-175.5" y="849" as="targetPoint" />
          </mxGeometry>
        </mxCell>
        <mxCell id="JG4VFSaP6pWy1ThilDXd-39" value="" style="endArrow=none;dashed=1;html=1;strokeWidth=3;" parent="1" edge="1">
          <mxGeometry width="50" height="50" relative="1" as="geometry">
            <mxPoint x="336.5" y="861" as="sourcePoint" />
            <mxPoint x="386.5" y="861" as="targetPoint" />
          </mxGeometry>
        </mxCell>
        <mxCell id="JG4VFSaP6pWy1ThilDXd-40" value="" style="endArrow=none;html=1;strokeWidth=3;" parent="1" edge="1">
          <mxGeometry width="50" height="50" relative="1" as="geometry">
            <mxPoint x="334.5" y="851" as="sourcePoint" />
            <mxPoint x="384.5" y="851" as="targetPoint" />
          </mxGeometry>
        </mxCell>
        <mxCell id="2dtRokwvFrZfCIqXV_Kj-37" value="" style="endArrow=none;dashed=1;html=1;strokeWidth=3;" parent="1" edge="1">
          <mxGeometry width="50" height="50" relative="1" as="geometry">
            <mxPoint x="-346" y="1218" as="sourcePoint" />
            <mxPoint x="-296" y="1218" as="targetPoint" />
          </mxGeometry>
        </mxCell>
        <mxCell id="2dtRokwvFrZfCIqXV_Kj-38" value="" style="endArrow=none;html=1;strokeWidth=3;" parent="1" edge="1">
          <mxGeometry width="50" height="50" relative="1" as="geometry">
            <mxPoint x="-348" y="1208" as="sourcePoint" />
            <mxPoint x="-298" y="1208" as="targetPoint" />
          </mxGeometry>
        </mxCell>
        <mxCell id="2dtRokwvFrZfCIqXV_Kj-42" value="" style="endArrow=none;dashed=1;html=1;strokeWidth=3;" parent="1" edge="1">
          <mxGeometry width="50" height="50" relative="1" as="geometry">
            <mxPoint x="-67" y="1218" as="sourcePoint" />
            <mxPoint x="-17" y="1218" as="targetPoint" />
          </mxGeometry>
        </mxCell>
        <mxCell id="2dtRokwvFrZfCIqXV_Kj-43" value="" style="endArrow=none;html=1;strokeWidth=3;" parent="1" edge="1">
          <mxGeometry width="50" height="50" relative="1" as="geometry">
            <mxPoint x="-69" y="1208" as="sourcePoint" />
            <mxPoint x="-19" y="1208" as="targetPoint" />
          </mxGeometry>
        </mxCell>
        <mxCell id="2dtRokwvFrZfCIqXV_Kj-50" value="" style="endArrow=oval;html=1;strokeWidth=3;rounded=0;startArrow=none;startFill=0;endFill=1;endSize=10;" parent="1" edge="1">
          <mxGeometry width="50" height="50" relative="1" as="geometry">
            <mxPoint x="300" y="1020" as="sourcePoint" />
            <mxPoint x="560" y="1000" as="targetPoint" />
            <Array as="points">
              <mxPoint x="300" y="1060" />
              <mxPoint x="560" y="1060" />
            </Array>
          </mxGeometry>
        </mxCell>
        <mxCell id="2dtRokwvFrZfCIqXV_Kj-51" value="" style="endArrow=baseDash;html=1;strokeWidth=3;rounded=0;startArrow=oval;startFill=1;endFill=0;endSize=10;" parent="1" edge="1">
          <mxGeometry width="50" height="50" relative="1" as="geometry">
            <mxPoint x="300" y="1023" as="sourcePoint" />
            <mxPoint x="300" y="990" as="targetPoint" />
            <Array as="points">
              <mxPoint x="300" y="1022.6500000000001" />
            </Array>
          </mxGeometry>
        </mxCell>
        <mxCell id="2dtRokwvFrZfCIqXV_Kj-52" value="&lt;font style=&quot;font-size: 24px&quot; face=&quot;Verdana&quot;&gt;q&lt;/font&gt;" style="text;html=1;strokeColor=none;fillColor=none;align=center;verticalAlign=middle;whiteSpace=wrap;rounded=0;dashed=1;container=0;" parent="1" vertex="1">
          <mxGeometry x="300" y="1020" width="40" height="20" as="geometry" />
        </mxCell>
        <mxCell id="2dtRokwvFrZfCIqXV_Kj-53" value="&lt;font style=&quot;font-size: 34px;&quot;&gt;&lt;span style=&quot;font-size: 34px;&quot;&gt;1&lt;/span&gt;&lt;/font&gt;" style="text;html=1;strokeColor=none;fillColor=none;align=center;verticalAlign=middle;whiteSpace=wrap;rounded=0;dashed=1;container=0;fontFamily=Times New Roman;fontSize=34;fontStyle=1" parent="1" vertex="1">
          <mxGeometry x="-298.5" y="392" width="40" height="20" as="geometry" />
        </mxCell>
      </root>
    </mxGraphModel>
  </diagram>
</mxfile>
